<svg id="Ebene_1" data-name="Ebene 1" xmlns="http://www.w3.org/2000/svg" viewBox="0 0 275.72 337.73"><defs><style>.cls-1{fill:#575756;}</style></defs><title>Bbc_Wortmarke.100</title><path class="cls-1" d="M291.75,172.59c0,26.76-8.39,28.84-20.26,28.84A158.59,158.59,0,0,1,250.68,200V143.55A90.63,90.63,0,0,1,274,140.24c11,0,17.72,2.19,17.72,32.35M274.5,121.14a71.37,71.37,0,0,0-24,4.33V88.09a5.23,5.23,0,0,0-5.24-5.24h-9.91a5.22,5.22,0,0,0-5.24,5.24V206.87c0,5.29,2.82,8.65,8.63,10.18,5.39,1.47,16.85,3.88,33,3.88,28.83,0,41.11-15,41.11-50.13,0-23.12-4.35-49.66-38.36-49.66" transform="translate(-126.28 -82.85)"/><path class="cls-1" d="M394.91,202.74h0Zm6.91,5.81-.67-4.16c-.5-3-2.89-4.8-6.24-4.8l-2.73.21c-4.07.47-13.57,1.49-22.32,1.73h-1.33c-13.26,0-18.79-4.44-18.79-31.95,0-28,8-30.19,19.35-30.19,4,0,13.89.94,19.8,1.49,2.34.21,4.15.37,5,.42l.85,0c5,0,6.19-3.35,6.46-4.8s.42-2.32.65-4.06c.2-1.25.83-5-3.24-7.11-3-1.54-14-4.72-28.93-4.72-28.43,0-41.12,15.19-41.12,49.26,0,36.25,11.72,50.34,41.78,50.34,10.7,0,20.67-1.8,25.82-3.59,5.73-2,6.27-5.46,5.7-8.11" transform="translate(-126.28 -82.85)"/><path class="cls-1" d="M173.38,142.88H146.69V109.66h23.78c17.12,0,19,11.5,19,16.46,0,9.39-7.06,16.76-16.08,16.76m19.71,38.66c0,12.46-6.26,18.28-19.71,18.28H146.69V161.94h26.69c14.53,0,19.71,10.12,19.71,19.6m5.51-30.21c5.65-4.19,12.15-12.14,12.15-26.7,0-21.07-14.78-34.2-38.57-34.2H132a5.69,5.69,0,0,0-5.69,5.67V213.47a5.67,5.67,0,0,0,5.69,5.66h46.75c20.38,0,35.76-15.75,35.76-36.64,0-14.15-5.95-25.54-15.88-31.16" transform="translate(-126.28 -82.85)"/><path class="cls-1" d="M126.28,255.26h17.43c9.59,0,14.38,4,14.38,12a15.16,15.16,0,0,1-1.54,7.44,10.1,10.1,0,0,1-4.6,4.13,11.7,11.7,0,0,1,5.62,3.86c1.32,1.71,2,4.19,2,7.46,0,4.88-1.28,8.37-3.83,10.5s-6.26,3.16-11.09,3.16H126.28Zm17.23,5H131.58v16.53H144c3,0,5.15-.74,6.52-2.2s2.06-3.67,2.06-6.59c0-2.74-.74-4.73-2.19-5.93S146.63,260.23,143.51,260.23Zm.56,21.41H131.58v17.22h12.84c3.12,0,5.49-.66,7.15-2.05s2.47-3.68,2.47-6.94Q154,281.65,144.07,281.64Z" transform="translate(-126.28 -82.85)"/><path class="cls-1" d="M181.8,299.78c1.54,0,3.37,0,5.52-.15s3.88-.18,5.23-.26l2-.22.14,4.26a99.49,99.49,0,0,1-13.54,1.12c-5.07,0-8.65-1.47-10.74-4.37s-3.13-7.42-3.13-13.56q0-18.36,14.63-18.35,7,0,10.54,3.94c2.32,2.62,3.5,6.76,3.5,12.39l-.29,4.05H172.6c.05,3.79.75,6.62,2.12,8.43S178.46,299.78,181.8,299.78Zm-9.2-15.41h18.14c0-4.14-.69-7.1-2.09-8.84s-3.64-2.6-6.71-2.6C175.71,272.93,172.6,276.73,172.6,284.37Z" transform="translate(-126.28 -82.85)"/><path class="cls-1" d="M205.1,303.82V268.94h5.24v4.61a28.34,28.34,0,0,1,12.13-5.3v5.45a34.3,34.3,0,0,0-6,1.72,32.65,32.65,0,0,0-4.64,2.18l-1.53.9v25.32Z" transform="translate(-126.28 -82.85)"/><path class="cls-1" d="M252.19,268.94h5.16v34.88h-5.16v-2.23a21.69,21.69,0,0,1-10.33,2.94q-7.1,0-9.45-3.72t-2.33-13.67v-18.2h5.16v18.13c0,5.08.45,8.47,1.33,10.2s2.9,2.58,6.07,2.58a17.19,17.19,0,0,0,4.42-.65,29.12,29.12,0,0,0,3.81-1.31l1.32-.62Z" transform="translate(-126.28 -82.85)"/><path class="cls-1" d="M275.07,273.7v30.12h-5.16V273.7h-4.4v-4.76h4.4v-3.12q0-7.41,2.06-10.06t7.28-2.65l7.06.49-.08,4.33c-2.6-.11-4.59-.15-5.94-.15-2,0-3.36.56-4.11,1.66s-1.11,3.26-1.11,6.44v3.06h10.19v4.76Z" transform="translate(-126.28 -82.85)"/><path class="cls-1" d="M317,269.57l-.14,4.53a94.59,94.59,0,0,0-12.2-1.11q-7.54,0-7.54,5.23a3.79,3.79,0,0,0,1.68,3.49c1.11.69,3.39,1.28,6.84,1.81,4.78.75,8.08,1.82,9.86,3.18s2.69,3.68,2.69,6.94c0,3.91-1.15,6.71-3.45,8.37s-5.69,2.52-10.14,2.52a45.37,45.37,0,0,1-5-.36l-5.14-.61-2.1-.37.28-4.52a90.1,90.1,0,0,0,11.51,1.18c3,0,5.24-.44,6.67-1.29s2.11-2.44,2.11-4.7a4,4,0,0,0-1.71-3.7c-1.13-.7-3.49-1.34-7.07-1.89-4.55-.7-7.75-1.69-9.55-3s-2.72-3.58-2.72-6.84c0-3.53,1.18-6.11,3.59-7.75a15.54,15.54,0,0,1,8.95-2.43,47.16,47.16,0,0,1,5.49.36c2.11.22,3.84.43,5.18.61Z" transform="translate(-126.28 -82.85)"/><path class="cls-1" d="M141.7,327.87q7.05,0,9.91,4c1.89,2.68,2.86,7.17,2.86,13.5q0,10.46-3.53,14.61c-2.34,2.75-6.65,4.15-12.94,4.15-1.25,0-2.85-.06-4.81-.21s-3.58-.26-4.88-.34l-2-.22v-50h5.24v16.82A25.09,25.09,0,0,1,141.7,327.87Zm-3.77,31.61q6.82,0,9-3.1t2.2-10.85c0-4.64-.57-7.95-1.72-9.91s-3.21-2.93-6.23-2.93a23.89,23.89,0,0,0-4.47.46,26.24,26.24,0,0,0-3.84.94l-1.39.49v24.48C134.54,359.33,136.68,359.48,137.93,359.48Z" transform="translate(-126.28 -82.85)"/><path class="cls-1" d="M163.81,320.68v-6.05H169v6.05Zm0,42.77V328.57H169v34.88Z" transform="translate(-126.28 -82.85)"/><path class="cls-1" d="M179.86,363.45V313.36H185v50.09Z" transform="translate(-126.28 -82.85)"/><path class="cls-1" d="M222.69,314.63v48.82h-5.24v-2.3a21.51,21.51,0,0,1-10.59,3,14.65,14.65,0,0,1-4.85-.73,10.65,10.65,0,0,1-3.9-2.58,11.81,11.81,0,0,1-2.8-5.56,37.37,37.37,0,0,1-.94-9.12q0-9.42,3.38-13.86c2.26-2.95,6-4.44,11.2-4.44a43,43,0,0,1,8.5.92V314.63Zm-15.14,44.7a17.34,17.34,0,0,0,4.57-.65,26.19,26.19,0,0,0,3.87-1.29l1.46-.63V333.4a70.11,70.11,0,0,0-8.22-.77c-3.54,0-6,1.08-7.46,3.28s-2.17,5.65-2.17,10.39a30.16,30.16,0,0,0,.63,6.73,8.49,8.49,0,0,0,1.85,4,7.37,7.37,0,0,0,2.47,1.82A8.19,8.19,0,0,0,207.55,359.33Z" transform="translate(-126.28 -82.85)"/><path class="cls-1" d="M255.76,328.57h5.14v34.88h-5.14v-2.23a21.87,21.87,0,0,1-10.33,2.94c-4.75,0-7.89-1.23-9.46-3.72s-2.33-7-2.33-13.66V328.57h5.17v18.14c0,5.07.43,8.47,1.32,10.19s2.9,2.58,6.07,2.58a17.19,17.19,0,0,0,4.42-.65,28.36,28.36,0,0,0,3.81-1.3l1.33-.63Z" transform="translate(-126.28 -82.85)"/><path class="cls-1" d="M277.45,363.45h-5.22V328.57h5.22v2.54a21.74,21.74,0,0,1,10.82-3.24q6.94,0,9.34,3.82T300,345.33v18.12h-5.16V345.26c0-4.89-.49-8.23-1.43-10s-3-2.69-6.1-2.69a17.43,17.43,0,0,0-4.68.66,19.28,19.28,0,0,0-3.78,1.36l-1.38.62Z" transform="translate(-126.28 -82.85)"/><path class="cls-1" d="M323.48,379.85c-5.57,0-9.48-.75-11.69-2.27s-3.3-4.26-3.3-8.25a7.8,7.8,0,0,1,1.26-4.65,19.63,19.63,0,0,1,4.32-4c-1.31-.83-1.95-2.44-1.95-4.8a5.62,5.62,0,0,1,.59-2,24.52,24.52,0,0,1,1.15-2.43l.55-1.12c-3.63-1.68-5.43-5.19-5.43-10.54q0-11.93,13-11.94a29.47,29.47,0,0,1,3.34.22,23.84,23.84,0,0,1,2.86.48l1,.22,10.18-.28V333l-6.41-.12c1.53,1.63,2.3,3.94,2.3,7,0,4.43-1.09,7.49-3.21,9.21s-5.59,2.59-10.33,2.59a19.66,19.66,0,0,1-3.42-.29,14.77,14.77,0,0,0-1.26,4c0,1.45.44,2.34,1.33,2.7s3.26.51,7.12.51q7.68,0,10.6,2.09c2,1.41,2.93,4.12,2.93,8.17Q339,379.85,323.48,379.85Zm1.68-16.73-7.6-.37a13.51,13.51,0,0,0-3.08,2.94,5.72,5.72,0,0,0-.82,3.21c0,2.47.68,4.17,2,5.13s4,1.43,7.86,1.43c3.53,0,6.12-.53,7.73-1.53a5.4,5.4,0,0,0,2.45-4.95c0-2.52-.59-4.12-1.78-4.82S328.51,363.12,325.16,363.12Zm-3.35-15.69c3,0,5.09-.58,6.35-1.72s1.88-3.11,1.88-5.9c0-3-.59-5-1.77-6.07s-3.29-1.6-6.31-1.6c-2.67,0-4.62.58-5.86,1.78s-1.9,3.15-1.9,5.89c0,2.59.58,4.52,1.72,5.76S319,347.43,321.81,347.43Z" transform="translate(-126.28 -82.85)"/><path class="cls-1" d="M371.2,329.21l-.14,4.53a93.08,93.08,0,0,0-12.21-1.11c-5,0-7.54,1.74-7.54,5.23a3.8,3.8,0,0,0,1.69,3.49c1.11.69,3.38,1.28,6.83,1.81q7.19,1.13,9.88,3.17t2.67,6.95c0,3.9-1.14,6.71-3.44,8.37s-5.7,2.51-10.15,2.51a44.44,44.44,0,0,1-5-.36c-2.06-.23-3.77-.43-5.16-.62l-2.11-.36.29-4.51a89.49,89.49,0,0,0,11.5,1.17c3,0,5.26-.43,6.66-1.28s2.13-2.45,2.13-4.71a4,4,0,0,0-1.7-3.69c-1.15-.7-3.51-1.35-7.09-1.9-4.55-.7-7.74-1.69-9.55-3s-2.72-3.57-2.72-6.83c0-3.53,1.19-6.12,3.58-7.75a15.62,15.62,0,0,1,9-2.45,47.21,47.21,0,0,1,5.46.37c2.13.22,3.86.43,5.2.61Z" transform="translate(-126.28 -82.85)"/><path class="cls-1" d="M140.71,384.23a36,36,0,0,1,3.78.28c1.57.18,2.91.38,4,.56l1.68.2-.15,4.54a80.79,80.79,0,0,0-8.22-.62c-4,0-6.64.91-8.07,2.76s-2.12,5.1-2.12,9.79q0,8,2,10.92c1.34,2,4.06,3,8.2,3l8.29-.63.22,4.54a75.07,75.07,0,0,1-9.69,1c-5.5,0-9.26-1.4-11.31-4.15s-3.06-7.64-3.06-14.62q0-9.48,3.32-13.49C131.79,385.57,135.51,384.23,140.71,384.23Z" transform="translate(-126.28 -82.85)"/><path class="cls-1" d="M171.13,415.76c1.53,0,3.36-.05,5.51-.13s3.89-.19,5.24-.27l2-.22.14,4.26a100.67,100.67,0,0,1-13.53,1.11c-5.07,0-8.64-1.47-10.74-4.36s-3.14-7.43-3.14-13.56q0-18.36,14.64-18.36,7.05,0,10.54,3.94c2.33,2.63,3.48,6.76,3.48,12.4l-.27,4H161.93c0,3.81.76,6.64,2.12,8.45S167.78,415.76,171.13,415.76Zm-9.2-15.41h18.13c0-4.13-.69-7.1-2.09-8.84s-3.63-2.59-6.71-2.59Q161.93,388.92,161.93,400.35Z" transform="translate(-126.28 -82.85)"/><path class="cls-1" d="M199.65,419.81h-5.22V384.92h5.22v2.53a21.76,21.76,0,0,1,10.81-3.22c4.66,0,7.79,1.25,9.36,3.81s2.36,7.08,2.36,13.63v18.14H217v-18.2c0-4.9-.48-8.23-1.43-10s-3-2.68-6.11-2.68a17.4,17.4,0,0,0-4.68.65,19.51,19.51,0,0,0-3.76,1.35l-1.4.63Z" transform="translate(-126.28 -82.85)"/><path class="cls-1" d="M250.87,389.68h-11v16.25c0,4,.28,6.62.84,7.84s1.94,1.86,4.19,1.86l6.21-.35.27,4.53a46.72,46.72,0,0,1-7,.77c-3.69,0-6.22-.91-7.61-2.68s-2.09-5.16-2.09-10.08V389.68h-5v-4.76h5V374.26h5.23v10.66h11Z" transform="translate(-126.28 -82.85)"/><path class="cls-1" d="M271.44,415.76c1.53,0,3.36-.05,5.5-.13s3.9-.19,5.25-.27l2-.22.12,4.26a100.53,100.53,0,0,1-13.52,1.11c-5.07,0-8.65-1.47-10.75-4.36s-3.13-7.43-3.13-13.56q0-18.36,14.64-18.36c4.69,0,8.22,1.32,10.54,3.94s3.47,6.76,3.47,12.4l-.26,4h-23.1c.06,3.81.77,6.64,2.14,8.45S268.09,415.76,271.44,415.76Zm-9.22-15.41h18.15c0-4.13-.7-7.1-2.09-8.84s-3.64-2.59-6.71-2.59Q262.21,388.92,262.22,400.35Z" transform="translate(-126.28 -82.85)"/><path class="cls-1" d="M294.74,419.81V384.92H300v4.61a28.61,28.61,0,0,1,12.14-5.3v5.45a34,34,0,0,0-6,1.73,30.33,30.33,0,0,0-4.65,2.18l-1.54.89v25.33Z" transform="translate(-126.28 -82.85)"/><rect class="cls-1" y="151.95" width="33.24" height="4.81"/></svg>